<svg t="1706846126345" class="icon" viewBox="0 0 1024 1024" version="1.1" xmlns="http://www.w3.org/2000/svg" p-id="895" width="48" height="48"><path d="M109.056 513.536c0 223.232 180.736 404.48 404.48 404.48 223.232 0 404.48-180.736 404.48-404.48 0-223.232-181.248-404.48-404.48-404.48s-404.48 181.248-404.48 404.48z" fill="#170B1A" p-id="896"></path><path d="M513.024 370.176c0.512-43.52 0-87.552 0.512-131.584h89.6c-0.512 7.68 1.024 15.36 2.048 23.04h-66.048v356.352c0.512 14.848-3.584 30.208-11.264 43.52-11.776 20.48-33.28 33.792-56.832 35.84-14.848 1.024-29.696-1.536-43.52-9.216-10.24-5.12-18.944-13.312-25.088-22.528 23.04 12.8 52.736 11.776 75.264-3.072 20.992-13.312 35.328-37.888 35.328-63.488V370.176z m148.48-25.088c12.288 7.68 26.624 13.824 40.96 16.896 8.704 2.048 16.896 3.072 26.112 3.072v19.968c-26.624-6.144-49.664-19.968-67.072-39.936z" fill="#25F4EE" p-id="897"></path><path d="M351.744 456.704c32.256-19.968 71.168-28.16 108.544-23.04v20.992c-10.24 0.512-19.968 1.536-29.696 3.584-24.064 5.12-47.104 14.848-67.072 29.696-20.992 15.872-37.376 37.376-49.152 61.44-11.264 23.04-16.384 48.128-15.872 73.728 0 27.648 7.68 55.296 20.992 79.36 6.144 11.264 13.312 22.016 22.528 31.232-18.944-13.312-35.328-31.232-46.592-51.2-15.872-27.136-23.552-58.368-23.04-89.6 1.024-28.672 9.216-57.344 24.576-81.92 14.336-21.504 32.256-40.448 54.784-54.272z" fill="#25F4EE" p-id="898"></path><path d="M539.136 261.12h66.56c2.56 12.8 7.168 25.088 12.8 36.352 9.216 17.92 22.528 33.792 39.424 44.032 1.024 1.024 2.048 1.536 3.072 3.072 17.408 19.968 41.472 34.304 67.584 39.936 0.512 23.04 0 47.104 0 70.144-43.52 0.512-87.552-13.312-123.392-39.424 0 55.808 0 111.616 0.512 167.936 0 7.168 0.512 14.848 0 22.528-2.048 27.136-10.24 53.76-24.064 77.312-11.776 20.48-27.648 38.912-46.592 52.736-24.576 18.432-54.272 28.16-84.992 29.184-15.36 0.512-31.232-0.512-46.08-4.096-20.992-4.608-41.472-13.312-59.392-26.112l-1.024-1.024c-9.216-9.216-16.384-19.968-22.528-31.232-13.312-24.064-20.992-51.2-20.992-79.36-0.512-25.088 5.12-51.2 15.872-73.728 11.264-24.064 27.648-45.568 49.152-61.44 19.968-14.848 42.496-25.088 67.072-29.696 9.728-2.048 19.968-3.072 29.696-3.584 0.512 9.216 0 17.92 0.512 26.624v45.056c-11.264-4.096-23.552-4.096-35.328-1.024-13.824 3.072-27.136 9.216-37.888 18.944-6.656 5.632-12.288 12.8-16.384 20.48-7.168 13.312-9.216 28.672-7.68 43.52 1.536 14.336 7.68 28.16 16.896 39.424 6.144 7.68 14.336 13.312 22.528 18.944 6.656 9.216 14.848 16.896 25.088 22.528 13.312 7.168 28.16 10.24 43.52 9.216 23.04-1.536 45.056-15.872 56.832-35.84 7.168-13.312 11.264-28.16 11.264-43.52-1.536-120.32-2.048-239.104-2.048-357.888z" fill="#FFFFFF" p-id="899"></path><path d="M605.696 261.12c7.68 0.512 15.36 0 23.552 0 0 26.112 8.192 51.712 23.04 73.216 2.048 3.072 4.096 5.12 5.632 7.168-16.896-10.752-30.72-26.624-39.424-44.032-5.12-10.752-10.24-23.04-12.8-36.352z m122.368 123.904c8.704 2.048 16.896 3.072 26.112 3.072v90.624c-44.032 0.512-88.576-14.336-124.416-40.448v179.2c0.512 13.312-1.024 27.136-4.096 40.448-8.704 40.448-32.256 76.288-66.048 100.352-17.92 12.8-37.888 21.504-59.392 26.624-25.6 5.632-52.224 5.12-77.312-1.024-30.208-7.68-57.344-24.576-78.848-47.104 17.92 12.8 37.888 20.992 59.392 26.112 14.848 3.584 30.72 4.096 46.08 4.096 30.72-1.024 60.416-11.264 84.992-29.184 18.944-13.824 34.816-32.256 46.592-52.736 13.824-23.552 22.016-50.176 24.064-77.312 0.512-7.168 0.512-14.848 0-22.528-0.512-55.808-0.512-111.616-0.512-167.936 35.328 25.6 79.36 39.424 123.392 39.424v-71.68z" fill="#FE2C55" p-id="900"></path><path d="M460.8 454.656c8.704 0 17.408 0.512 26.112 1.536v92.672c-12.288-4.096-26.624-4.608-39.424-1.536-24.576 5.12-45.056 24.064-53.248 47.616-8.704 23.04-5.12 50.688 9.728 70.144-8.704-5.12-16.384-11.264-22.528-18.944-9.216-11.264-15.36-25.088-16.896-39.424-1.536-14.848 1.024-30.208 7.68-43.52 4.096-7.68 9.728-14.848 16.384-20.48 11.264-9.216 24.576-14.848 37.888-18.944 11.776-3.072 24.064-3.072 35.328 1.024v-45.056c-1.024-7.168-0.512-15.872-1.024-25.088z" fill="#FE2C55" p-id="901"></path></svg>